<svg width="21" height="21" viewBox="0 0 21 21" fill="none" xmlns="http://www.w3.org/2000/svg">
<path fill-rule="evenodd" clip-rule="evenodd" d="M10.0745 0.286438C10.3147 0.201954 10.5768 0.203413 10.816 0.290566L19.4466 3.43462C19.881 3.59287 20.1701 4.00585 20.1701 4.46818V15.4115C20.1701 15.8281 19.9347 16.209 19.562 16.3954L10.9304 20.7111C10.6256 20.8635 10.2673 20.866 9.96031 20.7178L1.00948 16.3968C0.629295 16.2133 0.387695 15.8283 0.387695 15.4063V4.47275C0.387695 4.00595 0.682337 3.58997 1.12271 3.43508L10.0745 0.286438ZM6.09801 2.85117L2.19808 4.22289L10.5739 7.93897L14.3361 6.26978L6.09801 2.85117ZM6.87469 2.57799L15.0297 5.96209L18.7004 4.33349L10.4395 1.32412L6.87469 2.57799ZM1.48769 15.4063V5.11112L10.0239 8.89836V19.5271L1.48769 15.4063ZM19.0701 15.4115L11.1239 19.3845V8.89836L19.0701 5.37287V15.4115Z" fill="#0E1B4D"/>
</svg>
