<svg width="23" height="23" viewBox="0 0 23 23" fill="none" xmlns="http://www.w3.org/2000/svg">
<path fill-rule="evenodd" clip-rule="evenodd" d="M18.8667 8.08088H4.13333V20.9192H18.8667V8.08088ZM4.13333 7C3.50742 7 3 7.48393 3 8.08088V20.9192C3 21.516 3.50742 22 4.13333 22H18.8667C19.4926 22 20 21.516 20 20.9192V8.08088C20 7.48392 19.4926 7 18.8667 7H4.13333Z" fill="#0E1B4D"/>
<path d="M12.9973 13.152C12.9973 14.0548 12.2867 14.7868 11.4102 14.7868C10.5335 14.7868 9.82288 14.0548 9.82288 13.152C9.82288 12.2493 10.5335 11.5173 11.4102 11.5173C12.2867 11.5173 12.9973 12.2493 12.9973 13.152Z" fill="#0E1B4D"/>
<path d="M11.4306 13.1523C11.8103 13.1523 12.1181 13.4602 12.1181 13.8401V17.3069C12.1181 17.6868 11.8103 17.9947 11.4306 17.9947C11.0509 17.9947 10.7431 17.6868 10.7431 17.3069V13.8401C10.7431 13.4602 11.0509 13.1523 11.4306 13.1523Z" fill="#0E1B4D"/>
<path d="M7.27588 4.17556C7.27588 1.89157 9.12679 0.0400391 11.41 0.0400391C13.6933 0.0400391 15.5441 1.89157 15.5441 4.17556V6.77352H14.4441V4.17556C14.4441 2.49929 13.0857 1.1404 11.41 1.1404C9.7343 1.1404 8.37588 2.49929 8.37588 4.17556V6.77352H7.27588V4.17556Z" fill="#0E1B4D"/>
</svg>
