
<svg version="1.0" xmlns="http://www.w3.org/2000/svg"
 width="200.000000pt" height="95.000000pt" viewBox="0 0 200.000000 95.000000"
 preserveAspectRatio="xMidYMid meet">

<g transform="translate(0.000000,95.000000) scale(0.100000,-0.100000)"
fill="rgb(78,108,246)" stroke="none">
<path d="M811 850 c-24 -5 -46 -12 -48 -14 -3 -3 6 -20 20 -38 15 -19 30 -45
35 -58 8 -21 14 -24 51 -21 52 3 107 -14 126 -42 24 -35 19 -98 -12 -144 -39
-57 -291 -291 -332 -309 -23 -10 -72 -14 -160 -14 -126 0 -128 0 -167 -30 -21
-16 -42 -30 -46 -30 -5 0 -8 59 -8 131 l0 131 148 -4 c169 -4 195 -13 209 -81
l8 -38 64 65 64 64 -44 28 c-24 16 -46 30 -48 31 -3 2 11 20 30 41 44 46 59
81 59 135 0 62 -35 114 -100 151 l-55 31 -253 3 -252 4 0 -376 0 -376 316 0
315 0 82 77 c334 313 367 354 367 463 -1 135 -91 213 -259 225 -36 2 -86 0
-110 -5z m-298 -141 c70 -19 97 -76 61 -128 -28 -39 -73 -51 -194 -51 l-110 0
0 88 c0 49 3 92 7 95 10 11 194 8 236 -4z"/>
<path d="M1196 808 c15 -18 33 -48 41 -65 l13 -33 200 0 c216 0 244 -5 289
-53 33 -37 39 -111 12 -154 -40 -64 -54 -68 -273 -71 l-198 -4 0 -169 0 -169
85 0 85 0 0 105 0 105 113 0 c191 0 286 39 342 142 25 46 29 63 29 128 -1 90
-19 135 -75 190 -73 70 -125 80 -431 80 l-260 0 28 -32z"/>
<path d="M905 155 l-69 -65 187 0 187 0 0 65 0 65 -117 0 -118 -1 -70 -64z"/>
</g>
</svg>

