<svg width="20" height="20" viewBox="0 0 20 20" fill="none" xmlns="http://www.w3.org/2000/svg">
<path fill-rule="evenodd" clip-rule="evenodd" d="M6.60409 4.42374C6.60409 3.54434 6.95343 2.70095 7.57527 2.07912C8.1971 1.45729 9.04048 1.10795 9.91988 1.10795C10.7993 1.10795 11.6427 1.45729 12.2645 2.07912C12.8863 2.70095 13.2357 3.54434 13.2357 4.42374C13.2357 5.30314 12.8863 6.14652 12.2645 6.76835C11.6427 7.39019 10.7993 7.73953 9.91988 7.73953C9.04048 7.73953 8.1971 7.39019 7.57527 6.76835C6.95343 6.14652 6.60409 5.30314 6.60409 4.42374ZM9.91988 0.00268555C8.74735 0.00268555 7.62283 0.468474 6.79373 1.29758C5.96462 2.12669 5.49883 3.2512 5.49883 4.42374C5.49883 5.59627 5.96462 6.72079 6.79373 7.54989C7.62283 8.379 8.74735 8.84479 9.91988 8.84479C11.0924 8.84479 12.2169 8.379 13.046 7.54989C13.8751 6.72079 14.3409 5.59627 14.3409 4.42374C14.3409 3.2512 13.8751 2.12669 13.046 1.29758C12.2169 0.468474 11.0924 0.00268555 9.91988 0.00268555ZM16.0873 13.4316C17.3251 14.3379 18.1099 15.9074 18.1983 18.7922H1.64146C1.72988 15.9185 2.51462 14.3379 3.74146 13.4316C5.12304 12.4369 7.15672 12.1606 9.91988 12.1606C12.683 12.1606 14.7278 12.4479 16.0873 13.4316ZM9.91988 11.0553C7.15672 11.0553 4.78041 11.3206 3.10041 12.5474C1.3762 13.7964 0.525146 15.9516 0.525146 19.3448V19.8974H19.3146V19.3448C19.3146 15.9516 18.4636 13.7964 16.7394 12.5474C15.0594 11.3316 12.683 11.0553 9.91988 11.0553Z" fill="#0E1B4D"/>
</svg>
