<svg width="21" height="20" viewBox="0 0 21 20" fill="none" xmlns="http://www.w3.org/2000/svg">
<path fill-rule="evenodd" clip-rule="evenodd" d="M12.9737 12.1795C12.3801 12.7732 11.6753 13.2441 10.8997 13.5653C10.124 13.8866 9.29271 14.052 8.45317 14.052C7.61363 14.052 6.78232 13.8866 6.00668 13.5653C5.23105 13.2441 4.52629 12.7732 3.93265 12.1795C3.339 11.5859 2.8681 10.8811 2.54682 10.1055C2.22554 9.32985 2.06018 8.49854 2.06018 7.659C2.06018 6.81946 2.22554 5.98814 2.54682 5.2125C2.8681 4.43687 3.339 3.73211 3.93265 3.13847C5.13156 1.93955 6.75765 1.26601 8.45317 1.26601C10.1487 1.26601 11.7748 1.93955 12.9737 3.13847C14.1726 4.33739 14.8462 5.96347 14.8462 7.659C14.8462 9.35452 14.1726 10.9806 12.9737 12.1795ZM13.2611 13.4174C11.7743 14.6626 9.86258 15.2829 7.92791 15.1479C5.99325 15.0129 4.18627 14.1331 2.88682 12.6934C1.58738 11.2538 0.896682 9.36638 0.959922 7.42804C1.02316 5.48969 1.83541 3.65136 3.22594 2.29946C4.61646 0.947567 6.47694 0.18741 8.41629 0.178785C10.3556 0.17016 12.2228 0.913739 13.6253 2.25321C15.0278 3.59269 15.8564 5.42373 15.9368 7.36143C16.0173 9.29913 15.3434 11.1926 14.0569 12.6437L20.0253 18.6122C20.0827 18.6621 20.1293 18.7234 20.1619 18.7922C20.1946 18.861 20.2127 18.9358 20.2151 19.0119C20.2175 19.088 20.2041 19.1638 20.1758 19.2345C20.1475 19.3052 20.1049 19.3693 20.0507 19.4228C19.9965 19.4762 19.9318 19.5179 19.8607 19.5452C19.7896 19.5725 19.7136 19.5847 19.6376 19.5813C19.5615 19.5778 19.487 19.5587 19.4186 19.525C19.3503 19.4914 19.2897 19.444 19.2405 19.3858L13.2611 13.4174Z" fill="#0E1B4D"/>
</svg>
