<svg width="21" height="20" viewBox="0 0 21 20" fill="none" xmlns="http://www.w3.org/2000/svg">
<path fill-rule="evenodd" clip-rule="evenodd" d="M5.20729 0.296082H1.55828L0.669127 13.6912C0.615308 14.4808 0.724404 15.273 0.989638 16.0187C1.25487 16.7644 1.67058 17.4476 2.21095 18.0259C2.75131 18.6041 3.4048 19.0651 4.13082 19.3802C4.85683 19.6953 5.63988 19.8578 6.43133 19.8575H14.9534C15.7438 19.8577 16.5258 19.6955 17.251 19.3811C17.9762 19.0668 18.6291 18.6068 19.1693 18.0298C19.7095 17.4528 20.1255 16.771 20.3915 16.0267C20.6574 15.2824 20.7678 14.4914 20.7156 13.7027L19.8149 0.296082H5.20729ZM5.20729 1.45083H2.64375L1.82388 13.772C1.78117 14.4033 1.86862 15.0367 2.08082 15.6328C2.29302 16.2289 2.62543 16.7751 3.05744 17.2374C3.48945 17.6997 4.01184 18.0684 4.59222 18.3204C5.1726 18.5725 5.79857 18.7027 6.43133 18.7028H14.9534C15.5871 18.7042 16.2144 18.5753 16.7961 18.3239C17.3778 18.0725 17.9016 17.7041 18.3349 17.2416C18.7681 16.7791 19.1016 16.2324 19.3145 15.6355C19.5274 15.0386 19.6152 14.4043 19.5724 13.772L18.741 1.45083H16.1774V2.17832C16.1774 2.89863 16.0355 3.61189 15.7599 4.27737C15.4842 4.94284 15.0802 5.54751 14.5709 6.05685C14.0615 6.56618 13.4569 6.97021 12.7914 7.24586C12.1259 7.52151 11.4127 7.66339 10.6924 7.66339C9.97205 7.66339 9.25879 7.52151 8.59331 7.24586C7.92783 6.97021 7.32317 6.56618 6.81383 6.05685C6.3045 5.54751 5.90047 4.94284 5.62482 4.27737C5.34917 3.61189 5.20729 2.89863 5.20729 2.17832V1.45083ZM15.0227 1.45083H6.36204V2.17832C6.36204 3.32679 6.81827 4.42823 7.63036 5.24032C8.44245 6.05241 9.54389 6.50864 10.6924 6.50864C11.8408 6.50864 12.9423 6.05241 13.7544 5.24032C14.5664 4.42823 15.0227 3.32679 15.0227 2.17832V1.45083Z" fill="#0E1B4D"/>
</svg>
