<svg width="11" height="7" viewBox="0 0 11 7" fill="none" xmlns="http://www.w3.org/2000/svg">
<path fill-rule="evenodd" clip-rule="evenodd" d="M10.1631 1.11063C10.1144 1.06179 10.0566 1.02303 9.99292 0.996594C9.92926 0.970153 9.86101 0.956543 9.79208 0.956543C9.72316 0.956543 9.65491 0.970153 9.59125 0.996594C9.52759 1.02303 9.46977 1.06179 9.42109 1.11063L5.60008 4.93618L1.77908 1.11063C1.68068 1.01215 1.54723 0.956818 1.40808 0.956818C1.26894 0.956818 1.13549 1.01215 1.03709 1.11063C0.9387 1.20911 0.883423 1.34268 0.883423 1.48196C0.883423 1.62124 0.9387 1.75481 1.03709 1.85329L5.22909 6.04913C5.27777 6.09797 5.33559 6.13672 5.39925 6.16317C5.46291 6.18961 5.53116 6.20322 5.60008 6.20322C5.66901 6.20322 5.73726 6.18961 5.80092 6.16317C5.86458 6.13672 5.9224 6.09797 5.97108 6.04913L10.1631 1.85329C10.2119 1.80457 10.2506 1.7467 10.277 1.68298C10.3034 1.61926 10.317 1.55095 10.317 1.48196C10.317 1.41297 10.3034 1.34466 10.277 1.28094C10.2506 1.21723 10.2119 1.15935 10.1631 1.11063Z" fill="#0E1B4D" fill-opacity="0.75"/>
</svg>
