<svg width="15" height="23" viewBox="0 0 15 23" fill="none" xmlns="http://www.w3.org/2000/svg">
<path d="M11.5572 0.717954C11.7776 0.84861 11.8787 1.11426 11.8007 1.35842L9.17785 9.57269L13.7731 10.6729C13.9654 10.7189 14.1182 10.8646 14.1733 11.0544C14.2284 11.2443 14.1774 11.4492 14.0396 11.591L3.72913 22.2044C3.54637 22.3925 3.25619 22.4254 3.03595 22.283C2.81569 22.1405 2.72669 21.8624 2.82332 21.6186L6.0844 13.3887L1.16793 12.2117C0.976626 12.1658 0.824342 12.0214 0.768561 11.8327C0.71278 11.6441 0.761983 11.44 0.897602 11.2976L10.8783 0.811929C11.0551 0.626277 11.3366 0.587298 11.5572 0.717954ZM2.35279 11.3642L6.9575 12.4667C7.1126 12.5037 7.24394 12.6064 7.31742 12.7479C7.39101 12.8894 7.39948 13.0558 7.34074 13.2041L4.86202 19.4596L12.5773 11.5176L8.3457 10.5045C8.19698 10.4689 8.06982 10.373 7.99469 10.2398C7.91956 10.1065 7.90328 9.94807 7.94981 9.80237L10.0246 3.30429L2.35279 11.3642Z" fill="#0E1B4D"/>
</svg>
