<svg width="22" height="22" viewBox="0 0 22 22" fill="none" xmlns="http://www.w3.org/2000/svg">
<path fill-rule="evenodd" clip-rule="evenodd" d="M11.41 2.92912L9.80481 8.11012C9.59335 8.79265 8.98688 9.25474 8.30257 9.25474H3.10801L7.3105 12.4568C7.86412 12.8786 8.09577 13.6263 7.8843 14.3088L6.27909 19.4898L10.4816 16.2877C11.0352 15.866 11.7849 15.866 12.3384 16.2877L16.541 19.4898L14.9357 14.3088C14.7243 13.6263 14.956 12.8786 15.5095 12.4568L19.7121 9.25474H14.5175C13.8332 9.25474 13.2267 8.79265 13.0153 8.11012L11.41 2.92912ZM11.9107 0.971628C11.7531 0.462908 11.0669 0.462908 10.9093 0.971628L8.80332 7.76886C8.73283 7.99637 8.53067 8.1504 8.30257 8.1504H1.48755C0.977499 8.1504 0.76543 8.83488 1.17807 9.14929L6.69154 13.3502C6.87608 13.4908 6.95329 13.74 6.88281 13.9675L4.77685 20.7647C4.61924 21.2735 5.17444 21.6966 5.58708 21.3822L11.1005 17.1812C11.2851 17.0406 11.535 17.0406 11.7195 17.1812L17.233 21.3822C17.6456 21.6966 18.2008 21.2735 18.0432 20.7647L15.9373 13.9675C15.8668 13.74 15.944 13.4908 16.1285 13.3502L21.642 9.14929C22.0546 8.83488 21.8425 8.1504 21.3325 8.1504H14.5175C14.2894 8.1504 14.0872 7.99637 14.0167 7.76886L11.9107 0.971628Z" fill="#0E1B4D"/>
</svg>
